<svg xmlns="http://www.w3.org/2000/svg" width="256" height="256" viewBox="0 0 256 256">
<rect x="0" y="0" width="256" height="256" rx="56.32" ry="56.32" fill="#155A6B"></rect>
<g transform="translate(43.52,43.52) scale(0.728276)">
  <path d="M 231.75 6.00 L 202.25 6.00 L 202.00 7.50 L 200.00 9.25 L 200.00 10.50 L 197.00 13.25 L 197.00 14.50 L 194.00 17.25 L 194.00 18.50 L 191.00 21.25 L 191.00 22.50 L 188.00 25.25 L 188.00 26.50 L 185.00 29.25 L 185.00 30.50 L 182.00 33.25 L 182.00 34.50 L 180.00 36.25 L 180.00 37.50 L 177.00 40.25 L 177.00 41.50 L 174.00 44.25 L 174.00 45.50 L 171.00 48.25 L 171.00 49.50 L 168.00 52.25 L 168.00 53.50 L 165.00 56.25 L 165.00 57.50 L 163.00 59.25 L 163.00 60.50 L 160.00 63.25 L 160.00 64.50 L 157.00 67.25 L 157.00 68.50 L 154.00 71.25 L 154.00 72.50 L 151.00 75.25 L 151.00 76.50 L 150.00 77.25 L 150.00 78.50 L 178.50 78.75 L 179.75 77.50 L 179.75 76.25 L 181.75 74.50 L 181.75 73.25 L 184.75 70.50 L 184.75 69.25 L 187.75 66.50 L 187.75 65.25 L 190.75 62.50 L 190.75 61.25 L 193.75 58.50 L 193.75 57.25 L 195.75 55.50 L 195.75 54.25 L 198.75 51.50 L 198.75 50.25 L 201.75 47.50 L 201.75 46.25 L 204.75 43.50 L 204.75 42.25 L 207.75 39.50 L 207.75 38.25 L 210.75 35.50 L 210.75 34.25 L 213.75 31.50 L 213.75 30.25 L 215.75 28.50 L 215.75 27.25 L 218.75 24.50 L 218.75 23.25 L 221.75 20.50 L 221.75 19.25 L 224.75 16.50 L 224.75 15.25 L 227.75 12.50 L 227.75 11.25 L 230.75 8.50 L 230.75 7.25 L 231.75 6.75 Z M 107.00 0.00 L 106.50 1.00 L 96.25 1.00 L 95.50 2.00 L 89.25 2.00 L 88.50 3.00 L 85.25 3.00 L 84.50 4.00 L 81.25 4.00 L 80.50 5.00 L 77.25 5.00 L 76.50 6.00 L 74.25 6.00 L 73.50 7.00 L 72.25 7.00 L 71.50 8.00 L 69.25 8.00 L 68.50 9.00 L 67.25 9.00 L 66.50 10.00 L 64.25 10.00 L 63.50 11.00 L 62.25 11.00 L 60.50 13.00 L 59.25 13.00 L 58.50 14.00 L 57.25 14.00 L 56.50 15.00 L 55.25 15.00 L 54.50 16.00 L 53.25 16.00 L 51.50 18.00 L 50.25 18.00 L 48.50 20.00 L 47.25 20.00 L 44.50 23.00 L 43.25 23.00 L 38.50 28.00 L 37.25 28.00 L 30.00 35.25 L 30.00 36.50 L 25.00 41.25 L 25.00 42.50 L 22.00 45.25 L 22.00 46.50 L 20.00 48.25 L 20.00 49.50 L 18.00 51.25 L 18.00 52.50 L 16.00 54.25 L 16.00 55.50 L 15.00 56.25 L 15.00 57.50 L 14.00 58.25 L 14.00 59.50 L 13.00 60.25 L 13.00 61.50 L 12.00 62.25 L 12.00 63.50 L 11.00 64.25 L 11.00 65.50 L 10.00 66.25 L 10.00 67.50 L 9.00 68.25 L 9.00 70.50 L 8.00 71.25 L 8.00 73.50 L 7.00 74.25 L 7.00 76.50 L 6.00 77.25 L 6.00 79.50 L 5.00 80.25 L 5.00 82.50 L 4.00 83.25 L 4.00 87.50 L 3.00 88.25 L 3.00 92.50 L 2.00 93.25 L 2.00 98.50 L 1.00 99.25 L 1.00 110.50 L 0.00 111.00 L 0.00 122.75 L 1.00 123.25 L 1.00 132.50 L 2.00 133.25 L 2.00 139.50 L 3.00 140.25 L 3.00 144.50 L 4.00 145.25 L 4.00 148.50 L 5.00 149.25 L 5.00 151.50 L 6.00 152.25 L 6.00 155.50 L 7.00 156.25 L 7.00 158.50 L 8.00 159.25 L 8.00 160.50 L 9.00 161.25 L 9.00 163.50 L 10.00 164.25 L 10.00 165.50 L 11.00 166.25 L 11.00 167.50 L 12.00 168.25 L 12.00 169.50 L 13.00 170.25 L 13.00 171.50 L 14.00 172.25 L 14.00 173.50 L 15.00 174.25 L 15.00 175.50 L 16.00 176.25 L 16.00 177.50 L 18.00 179.25 L 18.00 180.50 L 19.00 181.25 L 19.00 182.50 L 21.00 184.25 L 21.00 185.50 L 24.00 188.25 L 24.00 189.50 L 29.00 194.25 L 29.00 195.50 L 39.25 205.75 L 40.50 205.75 L 44.25 209.75 L 45.50 209.75 L 48.25 212.75 L 49.50 212.75 L 51.25 214.75 L 52.50 214.75 L 54.25 216.75 L 55.50 216.75 L 56.25 217.75 L 57.50 217.75 L 58.25 218.75 L 59.50 218.75 L 60.25 219.75 L 61.50 219.75 L 62.25 220.75 L 63.50 220.75 L 64.25 221.75 L 65.50 221.75 L 66.25 222.75 L 67.50 222.75 L 68.25 223.75 L 69.50 223.75 L 70.25 224.75 L 72.50 224.75 L 73.25 225.75 L 75.50 225.75 L 76.25 226.75 L 78.50 226.75 L 79.25 227.75 L 81.50 227.75 L 82.25 228.75 L 86.50 228.75 L 87.25 229.75 L 91.50 229.75 L 92.25 230.75 L 98.50 230.75 L 99.00 231.75 L 122.75 231.75 L 123.25 230.75 L 129.50 230.75 L 130.25 229.75 L 134.50 229.75 L 135.25 228.75 L 138.50 228.75 L 139.25 227.75 L 142.50 227.75 L 143.25 226.75 L 145.50 226.75 L 146.25 225.75 L 148.50 225.75 L 149.25 224.75 L 151.50 224.75 L 152.25 223.75 L 153.50 223.75 L 154.25 222.75 L 155.50 222.75 L 156.25 221.75 L 157.50 221.75 L 158.25 220.75 L 159.50 220.75 L 160.25 219.75 L 161.50 219.75 L 162.25 218.75 L 163.50 218.75 L 164.25 217.75 L 165.50 217.75 L 167.25 215.75 L 168.50 215.75 L 169.25 214.75 L 170.50 214.75 L 173.25 211.75 L 174.50 211.75 L 177.25 208.75 L 178.50 208.75 L 183.25 203.75 L 184.50 203.75 L 189.75 198.50 L 189.75 197.25 L 194.75 192.50 L 194.75 191.25 L 198.75 187.50 L 198.75 186.25 L 200.75 184.50 L 200.75 183.25 L 202.75 181.50 L 202.75 180.25 L 203.75 179.50 L 203.75 178.25 L 204.75 177.50 L 204.75 176.25 L 206.75 174.50 L 206.75 173.25 L 207.75 172.50 L 207.75 171.25 L 208.75 170.50 L 208.75 168.25 L 209.75 167.50 L 209.75 165.25 L 207.25 165.00 L 206.50 164.00 L 205.25 164.00 L 204.50 163.00 L 203.25 163.00 L 202.50 162.00 L 200.25 162.00 L 199.50 161.00 L 198.25 161.00 L 197.50 160.00 L 196.25 160.00 L 195.50 159.00 L 194.25 159.00 L 193.50 158.00 L 191.25 158.00 L 190.50 157.00 L 189.25 157.00 L 188.50 156.00 L 187.25 156.00 L 186.50 155.00 L 185.25 155.00 L 184.50 154.00 L 182.25 154.00 L 181.50 153.00 L 180.25 153.00 L 179.50 152.00 L 178.25 152.00 L 177.50 151.00 L 176.25 151.00 L 175.50 150.00 L 173.25 150.00 L 172.50 149.00 L 171.25 149.00 L 170.00 150.25 L 170.00 151.50 L 169.00 152.25 L 169.00 153.50 L 168.00 154.25 L 168.00 155.50 L 167.00 156.25 L 167.00 157.50 L 165.00 159.25 L 165.00 160.50 L 163.00 162.25 L 163.00 163.50 L 160.00 166.25 L 160.00 167.50 L 153.50 174.00 L 152.25 174.00 L 148.50 178.00 L 147.25 178.00 L 145.50 180.00 L 144.25 180.00 L 143.50 181.00 L 142.25 181.00 L 141.50 182.00 L 140.25 182.00 L 139.50 183.00 L 138.25 183.00 L 137.50 184.00 L 136.25 184.00 L 135.50 185.00 L 133.25 185.00 L 132.50 186.00 L 130.25 186.00 L 129.50 187.00 L 126.25 187.00 L 125.50 188.00 L 120.25 188.00 L 119.50 189.00 L 103.25 189.00 L 102.50 188.00 L 97.25 188.00 L 96.50 187.00 L 93.25 187.00 L 92.50 186.00 L 90.25 186.00 L 89.50 185.00 L 87.25 185.00 L 86.50 184.00 L 85.25 184.00 L 84.50 183.00 L 83.25 183.00 L 82.50 182.00 L 81.25 182.00 L 80.50 181.00 L 79.25 181.00 L 78.50 180.00 L 77.25 180.00 L 75.50 178.00 L 74.25 178.00 L 71.50 175.00 L 70.25 175.00 L 61.75 166.50 L 61.75 165.25 L 58.75 162.50 L 58.75 161.25 L 56.75 159.50 L 56.75 158.25 L 54.75 156.50 L 54.75 155.25 L 53.75 154.50 L 53.75 153.25 L 52.75 152.50 L 52.75 151.25 L 51.75 150.50 L 51.75 149.25 L 50.75 148.50 L 50.75 146.25 L 49.75 145.50 L 49.75 144.25 L 48.75 143.50 L 48.75 141.25 L 47.75 140.50 L 47.75 137.25 L 46.75 136.50 L 46.75 132.25 L 45.75 131.50 L 45.75 126.25 L 44.75 125.50 L 44.75 106.25 L 45.75 105.50 L 45.75 99.25 L 46.75 98.50 L 46.75 95.25 L 47.75 94.50 L 47.75 91.25 L 48.75 90.50 L 48.75 88.25 L 49.75 87.50 L 49.75 85.25 L 50.75 84.50 L 50.75 83.25 L 51.75 82.50 L 51.75 81.25 L 52.75 80.50 L 52.75 79.25 L 53.75 78.50 L 53.75 77.25 L 54.75 76.50 L 54.75 75.25 L 55.75 74.50 L 55.75 73.25 L 57.75 71.50 L 57.75 70.25 L 60.75 67.50 L 60.75 66.25 L 70.25 56.75 L 71.50 56.75 L 74.25 53.75 L 75.50 53.75 L 77.25 51.75 L 78.50 51.75 L 79.25 50.75 L 80.50 50.75 L 81.25 49.75 L 82.50 49.75 L 83.25 48.75 L 84.50 48.75 L 85.25 47.75 L 87.50 47.75 L 88.25 46.75 L 89.50 46.75 L 90.25 45.75 L 92.50 45.75 L 93.25 44.75 L 96.50 44.75 L 97.25 43.75 L 102.50 43.75 L 103.25 42.75 L 118.50 42.75 L 119.25 43.75 L 124.50 43.75 L 125.25 44.75 L 128.50 44.75 L 129.25 45.75 L 131.50 45.75 L 132.25 46.75 L 134.50 46.75 L 135.25 47.75 L 136.50 47.75 L 137.25 48.75 L 138.50 48.75 L 139.25 49.75 L 140.50 49.75 L 141.25 50.75 L 142.50 50.75 L 143.25 51.75 L 144.50 51.75 L 146.25 53.75 L 147.50 53.75 L 149.25 55.75 L 150.50 55.75 L 152.75 53.50 L 152.75 52.25 L 154.75 50.50 L 154.75 49.25 L 157.75 46.50 L 157.75 45.25 L 159.75 43.50 L 159.75 42.25 L 162.75 39.50 L 162.75 38.25 L 165.75 35.50 L 165.75 34.25 L 168.75 31.50 L 168.75 30.25 L 170.75 28.50 L 170.75 27.25 L 173.75 24.50 L 173.75 23.25 L 175.75 21.50 L 172.50 18.00 L 171.25 18.00 L 169.50 16.00 L 168.25 16.00 L 167.50 15.00 L 166.25 15.00 L 164.50 13.00 L 163.25 13.00 L 162.50 12.00 L 161.25 12.00 L 160.50 11.00 L 159.25 11.00 L 158.50 10.00 L 157.25 10.00 L 156.50 9.00 L 155.25 9.00 L 154.50 8.00 L 152.25 8.00 L 151.50 7.00 L 149.25 7.00 L 148.50 6.00 L 146.25 6.00 L 145.50 5.00 L 143.25 5.00 L 142.50 4.00 L 139.25 4.00 L 138.50 3.00 L 134.25 3.00 L 133.50 2.00 L 128.25 2.00 L 127.50 1.00 L 116.25 1.00 L 115.75 0.00 Z" fill="#F5F5F2" fill-rule="evenodd"></path>
</g>
</svg>