<svg xmlns="http://www.w3.org/2000/svg" width="1319" height="305" viewBox="0 0 1319 305">
<path d="M 928.25 79.00 L 927.00 80.25 L 928.00 81.25 L 928.00 89.50 L 927.00 90.25 L 927.00 91.50 L 928.00 92.25 L 928.00 114.50 L 927.00 115.25 L 927.00 206.50 L 928.00 207.25 L 928.00 225.50 L 929.00 226.25 L 929.00 232.50 L 930.00 233.25 L 930.00 237.50 L 931.00 238.25 L 931.00 241.50 L 932.00 242.25 L 932.00 245.50 L 933.00 246.25 L 933.00 248.50 L 934.00 249.25 L 934.00 251.50 L 935.00 252.25 L 935.00 254.50 L 936.00 255.25 L 936.00 256.50 L 937.00 257.25 L 937.00 258.50 L 938.00 259.25 L 938.00 260.50 L 939.00 261.25 L 939.00 262.50 L 940.00 263.25 L 940.00 264.50 L 941.00 265.25 L 941.00 266.50 L 942.00 267.25 L 942.00 268.50 L 944.00 270.25 L 944.00 271.50 L 946.00 273.25 L 946.00 274.50 L 952.00 280.25 L 952.00 281.50 L 953.50 281.75 L 960.25 288.75 L 961.50 288.75 L 963.25 290.75 L 964.50 290.75 L 966.25 292.75 L 967.50 292.75 L 969.25 294.75 L 970.50 294.75 L 971.25 295.75 L 972.50 295.75 L 973.25 296.75 L 974.50 296.75 L 975.25 297.75 L 976.50 297.75 L 977.25 298.75 L 979.50 298.75 L 980.25 299.75 L 982.50 299.75 L 983.25 300.75 L 985.50 300.75 L 986.25 301.75 L 989.50 301.75 L 990.25 302.75 L 993.50 302.75 L 994.25 303.75 L 1000.50 303.75 L 1001.00 304.75 L 1023.75 304.75 L 1024.25 303.75 L 1029.50 303.75 L 1030.25 302.75 L 1034.50 302.75 L 1035.25 301.75 L 1037.50 301.75 L 1038.25 300.75 L 1040.50 300.75 L 1041.25 299.75 L 1043.50 299.75 L 1044.25 298.75 L 1046.50 298.75 L 1047.25 297.75 L 1048.50 297.75 L 1049.25 296.75 L 1050.50 296.75 L 1051.25 295.75 L 1052.50 295.75 L 1054.25 293.75 L 1055.50 293.75 L 1057.25 291.75 L 1058.50 291.75 L 1060.25 289.75 L 1061.50 289.75 L 1065.25 285.75 L 1066.50 285.75 L 1069.75 282.50 L 1069.75 281.25 L 1074.75 276.50 L 1074.75 275.00 L 1075.50 274.75 L 1076.25 275.75 L 1076.25 299.75 L 1119.50 299.75 L 1119.75 79.25 L 1076.25 79.00 L 1075.00 80.25 L 1075.00 216.50 L 1074.00 217.25 L 1074.00 221.50 L 1073.00 222.25 L 1073.00 225.50 L 1072.00 226.25 L 1072.00 228.50 L 1071.00 229.25 L 1071.00 231.50 L 1070.00 232.25 L 1070.00 233.50 L 1069.00 234.25 L 1069.00 236.50 L 1067.00 238.25 L 1067.00 239.50 L 1066.00 240.25 L 1066.00 241.50 L 1064.00 243.25 L 1064.00 244.50 L 1053.50 255.00 L 1052.25 255.00 L 1050.50 257.00 L 1049.25 257.00 L 1048.50 258.00 L 1047.25 258.00 L 1046.50 259.00 L 1045.25 259.00 L 1044.50 260.00 L 1042.25 260.00 L 1041.50 261.00 L 1039.25 261.00 L 1038.50 262.00 L 1036.25 262.00 L 1035.50 263.00 L 1029.25 263.00 L 1028.50 264.00 L 1016.25 264.00 L 1015.50 263.00 L 1010.25 263.00 L 1009.50 262.00 L 1006.25 262.00 L 1005.50 261.00 L 1003.25 261.00 L 1002.50 260.00 L 1001.25 260.00 L 1000.50 259.00 L 999.25 259.00 L 998.50 258.00 L 997.25 258.00 L 996.50 257.00 L 995.25 257.00 L 993.50 255.00 L 992.25 255.00 L 983.75 246.50 L 983.75 245.25 L 981.75 243.50 L 981.75 242.25 L 979.75 240.50 L 979.75 239.25 L 978.75 238.50 L 978.75 237.25 L 977.75 236.50 L 977.75 234.25 L 976.75 233.50 L 976.75 232.25 L 975.75 231.50 L 975.75 229.25 L 974.75 228.50 L 974.75 225.25 L 973.75 224.50 L 973.75 220.25 L 972.75 219.50 L 972.75 213.25 L 971.75 212.50 L 971.75 79.25 Z M 231.75 79.25 L 202.25 79.00 L 202.00 80.50 L 200.00 82.25 L 200.00 83.50 L 197.00 86.25 L 197.00 87.50 L 194.00 90.25 L 194.00 91.50 L 191.00 94.25 L 191.00 95.50 L 188.00 98.25 L 188.00 99.50 L 185.00 102.25 L 185.00 103.50 L 182.00 106.25 L 182.00 107.50 L 180.00 109.25 L 180.00 110.50 L 177.00 113.25 L 177.00 114.50 L 174.00 117.25 L 174.00 118.50 L 171.00 121.25 L 171.00 122.50 L 168.00 125.25 L 168.00 126.50 L 165.00 129.25 L 165.00 130.50 L 163.00 132.25 L 163.00 133.50 L 160.00 136.25 L 160.00 137.50 L 157.00 140.25 L 157.00 141.50 L 154.00 144.25 L 154.00 145.50 L 151.00 148.25 L 151.00 149.50 L 150.00 150.25 L 150.00 151.50 L 178.50 151.75 L 179.75 150.50 L 179.75 149.25 L 181.75 147.50 L 181.75 146.25 L 184.75 143.50 L 184.75 142.25 L 187.75 139.50 L 187.75 138.25 L 190.75 135.50 L 190.75 134.25 L 193.75 131.50 L 193.75 130.25 L 195.75 128.50 L 195.75 127.25 L 198.75 124.50 L 198.75 123.25 L 201.75 120.50 L 201.75 119.25 L 204.75 116.50 L 204.75 115.25 L 207.75 112.50 L 207.75 111.25 L 210.75 108.50 L 210.75 107.25 L 213.75 104.50 L 213.75 103.25 L 215.75 101.50 L 215.75 100.25 L 218.75 97.50 L 218.75 96.25 L 221.75 93.50 L 221.75 92.25 L 224.75 89.50 L 224.75 88.25 L 227.75 85.50 L 227.75 84.25 L 230.75 81.50 L 230.75 80.25 L 231.75 79.75 Z M 906.50 75.00 L 886.25 75.00 L 885.50 76.00 L 880.25 76.00 L 879.50 77.00 L 876.25 77.00 L 875.50 78.00 L 872.25 78.00 L 871.50 79.00 L 869.25 79.00 L 868.50 80.00 L 866.25 80.00 L 865.50 81.00 L 864.25 81.00 L 863.50 82.00 L 862.25 82.00 L 861.50 83.00 L 860.25 83.00 L 858.50 85.00 L 857.25 85.00 L 856.50 86.00 L 855.25 86.00 L 852.50 89.00 L 851.25 89.00 L 843.00 97.25 L 843.00 98.50 L 840.00 101.25 L 840.00 102.50 L 838.00 104.25 L 838.00 105.50 L 837.00 106.25 L 837.00 107.50 L 836.00 108.25 L 835.75 110.00 L 835.25 110.00 L 834.50 109.00 L 834.75 88.25 L 833.75 87.50 L 833.50 79.00 L 791.00 79.25 L 791.25 299.75 L 834.75 299.50 L 834.75 179.25 L 835.75 178.50 L 835.75 170.25 L 836.75 169.50 L 836.75 165.25 L 837.75 164.50 L 837.75 160.25 L 838.75 159.50 L 838.75 157.25 L 839.75 156.50 L 839.75 154.25 L 840.75 153.50 L 840.75 151.25 L 841.75 150.50 L 841.75 149.25 L 842.75 148.50 L 842.75 147.25 L 843.75 146.50 L 843.75 145.25 L 844.75 144.50 L 844.75 143.25 L 845.75 142.50 L 845.75 141.25 L 847.75 139.50 L 847.75 138.25 L 857.25 128.75 L 858.50 128.75 L 860.25 126.75 L 861.50 126.75 L 862.25 125.75 L 863.50 125.75 L 864.25 124.75 L 865.50 124.75 L 866.25 123.75 L 867.50 123.75 L 868.25 122.75 L 870.50 122.75 L 871.25 121.75 L 873.50 121.75 L 874.25 120.75 L 877.50 120.75 L 878.25 119.75 L 883.50 119.75 L 884.25 118.75 L 900.50 118.75 L 901.25 119.75 L 906.75 119.50 Z M 1211.25 74.00 L 1210.50 75.00 L 1205.25 75.00 L 1204.50 76.00 L 1200.25 76.00 L 1199.50 77.00 L 1196.25 77.00 L 1195.50 78.00 L 1193.25 78.00 L 1192.50 79.00 L 1190.25 79.00 L 1189.50 80.00 L 1187.25 80.00 L 1186.50 81.00 L 1185.25 81.00 L 1184.50 82.00 L 1183.25 82.00 L 1182.50 83.00 L 1181.25 83.00 L 1180.50 84.00 L 1179.25 84.00 L 1178.50 85.00 L 1177.25 85.00 L 1176.50 86.00 L 1175.25 86.00 L 1173.50 88.00 L 1172.25 88.00 L 1170.50 90.00 L 1169.25 90.00 L 1166.50 93.00 L 1165.25 93.00 L 1157.00 101.25 L 1157.00 102.50 L 1154.00 105.25 L 1154.00 106.50 L 1153.00 107.25 L 1153.00 108.50 L 1151.00 110.25 L 1151.00 111.50 L 1150.00 112.25 L 1150.00 113.50 L 1149.00 114.25 L 1149.00 116.50 L 1148.00 117.25 L 1148.00 118.50 L 1147.00 119.25 L 1147.00 122.50 L 1146.00 123.25 L 1146.00 125.50 L 1145.00 126.25 L 1145.00 132.50 L 1144.00 133.25 L 1144.00 147.50 L 1145.00 148.25 L 1145.00 153.50 L 1146.00 154.25 L 1146.00 157.50 L 1147.00 158.25 L 1147.00 160.50 L 1148.00 161.25 L 1148.00 162.50 L 1149.00 163.25 L 1149.00 165.50 L 1150.00 166.25 L 1150.00 167.50 L 1151.00 168.25 L 1151.00 169.50 L 1153.00 171.25 L 1153.00 172.50 L 1155.00 174.25 L 1155.00 175.50 L 1164.25 184.75 L 1165.50 184.75 L 1168.25 187.75 L 1169.50 187.75 L 1171.25 189.75 L 1172.50 189.75 L 1173.25 190.75 L 1174.50 190.75 L 1175.25 191.75 L 1176.50 191.75 L 1177.25 192.75 L 1178.50 192.75 L 1179.25 193.75 L 1180.50 193.75 L 1181.25 194.75 L 1182.50 194.75 L 1183.25 195.75 L 1184.50 195.75 L 1185.25 196.75 L 1187.50 196.75 L 1188.25 197.75 L 1190.50 197.75 L 1191.25 198.75 L 1193.50 198.75 L 1194.25 199.75 L 1196.50 199.75 L 1197.25 200.75 L 1200.50 200.75 L 1201.25 201.75 L 1203.50 201.75 L 1204.25 202.75 L 1207.50 202.75 L 1208.25 203.75 L 1212.50 203.75 L 1213.25 204.75 L 1216.50 204.75 L 1217.25 205.75 L 1221.50 205.75 L 1222.25 206.75 L 1225.50 206.75 L 1226.25 207.75 L 1230.50 207.75 L 1231.25 208.75 L 1234.50 208.75 L 1235.25 209.75 L 1238.50 209.75 L 1239.25 210.75 L 1242.50 210.75 L 1243.25 211.75 L 1246.50 211.75 L 1247.25 212.75 L 1249.50 212.75 L 1250.25 213.75 L 1252.50 213.75 L 1253.25 214.75 L 1254.50 214.75 L 1255.25 215.75 L 1256.50 215.75 L 1257.25 216.75 L 1258.50 216.75 L 1259.25 217.75 L 1260.50 217.75 L 1261.25 218.75 L 1262.50 218.75 L 1264.25 220.75 L 1265.50 220.75 L 1268.00 223.25 L 1268.00 224.50 L 1271.00 227.25 L 1271.00 229.50 L 1272.00 230.25 L 1272.00 232.50 L 1273.00 233.25 L 1273.00 242.50 L 1272.00 243.25 L 1272.00 246.50 L 1271.00 247.25 L 1271.00 248.50 L 1270.00 249.25 L 1270.00 250.50 L 1269.00 251.25 L 1269.00 252.50 L 1263.50 258.00 L 1262.25 258.00 L 1260.50 260.00 L 1259.25 260.00 L 1258.50 261.00 L 1257.25 261.00 L 1256.50 262.00 L 1255.25 262.00 L 1254.50 263.00 L 1252.25 263.00 L 1251.50 264.00 L 1248.25 264.00 L 1247.50 265.00 L 1242.25 265.00 L 1241.50 266.00 L 1221.25 266.00 L 1220.50 265.00 L 1215.25 265.00 L 1214.50 264.00 L 1212.25 264.00 L 1211.50 263.00 L 1208.25 263.00 L 1207.50 262.00 L 1206.25 262.00 L 1205.50 261.00 L 1203.25 261.00 L 1202.50 260.00 L 1201.25 260.00 L 1199.50 258.00 L 1198.25 258.00 L 1197.50 257.00 L 1196.25 257.00 L 1193.50 254.00 L 1192.25 254.00 L 1185.75 247.50 L 1185.75 246.25 L 1183.75 244.50 L 1183.75 243.25 L 1181.75 241.50 L 1181.75 240.25 L 1180.75 239.50 L 1180.75 238.25 L 1179.75 237.50 L 1179.75 236.25 L 1178.75 235.50 L 1178.75 234.25 L 1177.75 233.50 L 1177.75 231.25 L 1176.50 230.00 L 1175.50 231.00 L 1173.25 231.00 L 1172.50 232.00 L 1171.25 232.00 L 1170.50 233.00 L 1169.25 233.00 L 1168.50 234.00 L 1167.25 234.00 L 1166.50 235.00 L 1164.25 235.00 L 1163.50 236.00 L 1162.25 236.00 L 1161.50 237.00 L 1160.25 237.00 L 1159.50 238.00 L 1157.25 238.00 L 1156.50 239.00 L 1155.25 239.00 L 1154.50 240.00 L 1153.25 240.00 L 1152.50 241.00 L 1150.25 241.00 L 1149.50 242.00 L 1148.25 242.00 L 1147.50 243.00 L 1146.25 243.00 L 1145.50 244.00 L 1143.25 244.00 L 1142.50 245.00 L 1141.25 245.00 L 1140.50 246.00 L 1139.25 246.00 L 1138.00 247.25 L 1138.00 249.50 L 1139.00 250.25 L 1139.00 252.50 L 1140.00 253.25 L 1140.00 254.50 L 1141.00 255.25 L 1141.00 256.50 L 1142.00 257.25 L 1142.00 258.50 L 1143.00 259.25 L 1143.00 260.50 L 1144.00 261.25 L 1144.00 262.50 L 1145.00 263.25 L 1145.00 264.50 L 1147.00 266.25 L 1147.00 267.50 L 1150.00 270.25 L 1150.00 271.50 L 1156.00 277.25 L 1156.00 278.50 L 1157.25 279.75 L 1158.50 279.75 L 1163.25 284.75 L 1164.50 284.75 L 1166.25 286.75 L 1167.50 286.75 L 1169.25 288.75 L 1170.50 288.75 L 1172.25 290.75 L 1173.50 290.75 L 1174.25 291.75 L 1175.50 291.75 L 1176.25 292.75 L 1177.50 292.75 L 1178.25 293.75 L 1179.50 293.75 L 1180.25 294.75 L 1181.50 294.75 L 1182.25 295.75 L 1183.50 295.75 L 1184.25 296.75 L 1185.50 296.75 L 1186.25 297.75 L 1188.50 297.75 L 1189.25 298.75 L 1191.50 298.75 L 1192.25 299.75 L 1195.50 299.75 L 1196.25 300.75 L 1198.50 300.75 L 1199.25 301.75 L 1203.50 301.75 L 1204.25 302.75 L 1208.50 302.75 L 1209.25 303.75 L 1216.50 303.75 L 1217.00 304.75 L 1243.75 304.75 L 1244.25 303.75 L 1251.50 303.75 L 1252.25 302.75 L 1256.50 302.75 L 1257.25 301.75 L 1261.50 301.75 L 1262.25 300.75 L 1265.50 300.75 L 1266.25 299.75 L 1268.50 299.75 L 1269.25 298.75 L 1271.50 298.75 L 1272.25 297.75 L 1274.50 297.75 L 1275.25 296.75 L 1276.50 296.75 L 1277.25 295.75 L 1278.50 295.75 L 1279.25 294.75 L 1280.50 294.75 L 1281.25 293.75 L 1282.50 293.75 L 1283.25 292.75 L 1284.50 292.75 L 1285.25 291.75 L 1286.50 291.75 L 1288.25 289.75 L 1289.50 289.75 L 1290.25 288.75 L 1291.50 288.75 L 1294.25 285.75 L 1295.50 285.75 L 1305.75 275.50 L 1305.75 274.25 L 1308.75 271.50 L 1308.75 270.25 L 1309.75 269.50 L 1309.75 268.25 L 1311.75 266.50 L 1311.75 265.25 L 1312.75 264.50 L 1312.75 262.25 L 1313.75 261.50 L 1313.75 260.25 L 1314.75 259.50 L 1314.75 257.25 L 1315.75 256.50 L 1315.75 254.25 L 1316.75 253.50 L 1316.75 250.25 L 1317.75 249.50 L 1317.75 242.25 L 1318.75 241.75 L 1318.75 231.00 L 1317.75 230.50 L 1317.75 224.25 L 1316.75 223.50 L 1316.75 219.25 L 1315.75 218.50 L 1315.75 216.25 L 1314.75 215.50 L 1314.75 213.25 L 1313.75 212.50 L 1313.75 211.25 L 1312.75 210.50 L 1312.75 209.25 L 1311.75 208.50 L 1311.75 207.25 L 1310.75 206.50 L 1310.75 205.25 L 1308.75 203.50 L 1308.75 202.25 L 1304.75 198.50 L 1304.75 197.25 L 1300.50 193.00 L 1299.25 193.00 L 1295.50 189.00 L 1294.25 189.00 L 1292.50 187.00 L 1291.25 187.00 L 1289.50 185.00 L 1288.25 185.00 L 1287.50 184.00 L 1286.25 184.00 L 1285.50 183.00 L 1284.25 183.00 L 1283.50 182.00 L 1282.25 182.00 L 1281.50 181.00 L 1280.25 181.00 L 1279.50 180.00 L 1278.25 180.00 L 1277.50 179.00 L 1275.25 179.00 L 1274.50 178.00 L 1272.25 178.00 L 1271.50 177.00 L 1269.25 177.00 L 1268.50 176.00 L 1266.25 176.00 L 1265.50 175.00 L 1263.25 175.00 L 1262.50 174.00 L 1259.25 174.00 L 1258.50 173.00 L 1255.25 173.00 L 1254.50 172.00 L 1251.25 172.00 L 1250.50 171.00 L 1246.25 171.00 L 1245.50 170.00 L 1242.25 170.00 L 1241.50 169.00 L 1237.25 169.00 L 1236.50 168.00 L 1232.25 168.00 L 1231.50 167.00 L 1228.25 167.00 L 1227.50 166.00 L 1224.25 166.00 L 1223.50 165.00 L 1220.25 165.00 L 1219.50 164.00 L 1217.25 164.00 L 1216.50 163.00 L 1213.25 163.00 L 1212.50 162.00 L 1210.25 162.00 L 1209.50 161.00 L 1207.25 161.00 L 1206.50 160.00 L 1205.25 160.00 L 1204.50 159.00 L 1203.25 159.00 L 1202.50 158.00 L 1201.25 158.00 L 1200.50 157.00 L 1199.25 157.00 L 1192.75 150.50 L 1192.75 149.25 L 1190.75 147.50 L 1190.75 145.25 L 1189.75 144.50 L 1189.75 132.25 L 1190.75 131.50 L 1190.75 129.25 L 1191.75 128.50 L 1191.75 127.25 L 1192.75 126.50 L 1192.75 125.25 L 1199.25 118.75 L 1200.50 118.75 L 1202.25 116.75 L 1203.50 116.75 L 1204.25 115.75 L 1205.50 115.75 L 1206.25 114.75 L 1208.50 114.75 L 1209.25 113.75 L 1211.50 113.75 L 1212.25 112.75 L 1216.50 112.75 L 1217.25 111.75 L 1236.50 111.75 L 1237.25 112.75 L 1242.50 112.75 L 1243.25 113.75 L 1245.50 113.75 L 1246.25 114.75 L 1248.50 114.75 L 1249.25 115.75 L 1250.50 115.75 L 1251.25 116.75 L 1253.50 116.75 L 1255.25 118.75 L 1256.50 118.75 L 1257.25 119.75 L 1258.50 119.75 L 1269.00 130.25 L 1269.00 131.50 L 1271.00 133.25 L 1271.00 134.50 L 1272.00 135.25 L 1272.00 136.50 L 1273.00 137.25 L 1273.00 138.50 L 1274.00 139.25 L 1274.00 140.50 L 1275.00 141.25 L 1275.00 142.50 L 1276.50 142.75 L 1277.25 141.75 L 1278.50 141.75 L 1279.25 140.75 L 1280.50 140.75 L 1281.25 139.75 L 1283.50 139.75 L 1284.25 138.75 L 1285.50 138.75 L 1286.25 137.75 L 1287.50 137.75 L 1288.25 136.75 L 1290.50 136.75 L 1291.25 135.75 L 1292.50 135.75 L 1293.25 134.75 L 1294.50 134.75 L 1295.25 133.75 L 1296.50 133.75 L 1297.25 132.75 L 1299.50 132.75 L 1300.25 131.75 L 1301.50 131.75 L 1302.25 130.75 L 1303.50 130.75 L 1304.25 129.75 L 1306.50 129.75 L 1307.25 128.75 L 1308.50 128.75 L 1309.25 127.75 L 1310.50 127.75 L 1311.25 126.75 L 1313.50 126.75 L 1313.75 123.25 L 1312.75 122.50 L 1312.75 121.25 L 1311.75 120.50 L 1311.75 119.25 L 1310.75 118.50 L 1310.75 116.25 L 1308.75 114.50 L 1308.75 113.25 L 1307.75 112.50 L 1307.75 111.25 L 1306.75 110.50 L 1306.75 109.25 L 1303.75 106.50 L 1303.75 105.25 L 1290.50 92.00 L 1289.25 92.00 L 1286.50 89.00 L 1285.25 89.00 L 1283.50 87.00 L 1282.25 87.00 L 1281.50 86.00 L 1280.25 86.00 L 1278.50 84.00 L 1277.25 84.00 L 1276.50 83.00 L 1275.25 83.00 L 1274.50 82.00 L 1272.25 82.00 L 1271.50 81.00 L 1270.25 81.00 L 1269.50 80.00 L 1267.25 80.00 L 1266.50 79.00 L 1264.25 79.00 L 1263.50 78.00 L 1261.25 78.00 L 1260.50 77.00 L 1257.25 77.00 L 1256.50 76.00 L 1252.25 76.00 L 1251.50 75.00 L 1246.25 75.00 L 1245.50 74.00 L 1233.25 74.00 L 1232.50 73.00 L 1224.25 73.00 L 1223.50 74.00 Z M 636.25 74.00 L 635.50 75.00 L 630.25 75.00 L 629.50 76.00 L 626.25 76.00 L 625.50 77.00 L 622.25 77.00 L 621.50 78.00 L 618.25 78.00 L 617.50 79.00 L 615.25 79.00 L 614.50 80.00 L 612.25 80.00 L 611.50 81.00 L 610.25 81.00 L 609.50 82.00 L 607.25 82.00 L 606.50 83.00 L 605.25 83.00 L 604.50 84.00 L 603.25 84.00 L 602.50 85.00 L 601.25 85.00 L 600.50 86.00 L 599.25 86.00 L 598.50 87.00 L 597.25 87.00 L 596.50 88.00 L 595.25 88.00 L 593.50 90.00 L 592.25 90.00 L 590.50 92.00 L 589.25 92.00 L 587.50 94.00 L 586.25 94.00 L 584.50 96.00 L 583.25 96.00 L 579.50 100.00 L 578.25 100.00 L 567.00 111.25 L 567.00 112.50 L 562.00 117.25 L 562.00 118.50 L 560.00 120.25 L 560.00 121.50 L 558.00 123.25 L 558.00 124.50 L 556.00 126.25 L 556.00 127.50 L 555.00 128.25 L 555.00 129.50 L 553.00 131.25 L 553.00 132.50 L 552.00 133.25 L 552.00 134.50 L 551.00 135.25 L 551.00 136.50 L 550.00 137.25 L 550.00 138.50 L 549.00 139.25 L 549.00 140.50 L 548.00 141.25 L 548.00 143.50 L 547.00 144.25 L 547.00 145.50 L 546.00 146.25 L 546.00 148.50 L 545.00 149.25 L 545.00 151.50 L 544.00 152.25 L 544.00 155.50 L 543.00 156.25 L 543.00 158.50 L 542.00 159.25 L 542.00 163.50 L 541.00 164.25 L 541.00 169.50 L 540.00 170.25 L 540.00 177.50 L 539.00 178.25 L 539.00 199.50 L 540.00 200.25 L 540.00 208.50 L 541.00 209.25 L 541.00 213.50 L 542.00 214.25 L 542.00 218.50 L 543.00 219.25 L 543.00 222.50 L 544.00 223.25 L 544.00 225.50 L 545.00 226.25 L 545.00 228.50 L 546.00 229.25 L 546.00 231.50 L 547.00 232.25 L 547.00 234.50 L 548.00 235.25 L 548.00 236.50 L 549.00 237.25 L 549.00 238.50 L 550.00 239.25 L 550.00 240.50 L 551.00 241.25 L 551.00 242.50 L 552.00 243.25 L 552.00 244.50 L 553.00 245.25 L 553.00 246.50 L 554.00 247.25 L 554.00 248.50 L 556.00 250.25 L 556.00 251.50 L 557.00 252.25 L 557.00 253.50 L 559.00 255.25 L 559.00 256.50 L 562.00 259.25 L 562.00 260.50 L 565.00 263.25 L 565.00 264.50 L 580.25 279.75 L 581.50 279.75 L 584.25 282.75 L 585.50 282.75 L 587.25 284.75 L 588.50 284.75 L 590.25 286.75 L 591.50 286.75 L 593.25 288.75 L 594.50 288.75 L 595.25 289.75 L 596.50 289.75 L 598.25 291.75 L 599.50 291.75 L 600.25 292.75 L 601.50 292.75 L 602.25 293.75 L 603.50 293.75 L 604.25 294.75 L 605.50 294.75 L 606.25 295.75 L 608.50 295.75 L 609.25 296.75 L 610.50 296.75 L 611.25 297.75 L 613.50 297.75 L 614.25 298.75 L 616.50 298.75 L 617.25 299.75 L 619.50 299.75 L 620.25 300.75 L 623.50 300.75 L 624.25 301.75 L 627.50 301.75 L 628.25 302.75 L 632.50 302.75 L 633.25 303.75 L 640.50 303.75 L 641.00 304.75 L 665.75 304.75 L 666.25 303.75 L 672.50 303.75 L 673.25 302.75 L 678.50 302.75 L 679.25 301.75 L 682.50 301.75 L 683.25 300.75 L 686.50 300.75 L 687.25 299.75 L 689.50 299.75 L 690.25 298.75 L 692.50 298.75 L 693.25 297.75 L 695.50 297.75 L 696.25 296.75 L 697.50 296.75 L 698.25 295.75 L 700.50 295.75 L 701.25 294.75 L 702.50 294.75 L 703.25 293.75 L 704.50 293.75 L 705.25 292.75 L 706.50 292.75 L 707.25 291.75 L 708.50 291.75 L 710.25 289.75 L 711.50 289.75 L 712.25 288.75 L 713.50 288.75 L 714.25 287.75 L 715.50 287.75 L 717.25 285.75 L 718.50 285.75 L 721.25 282.75 L 722.50 282.75 L 725.25 279.75 L 726.50 279.75 L 741.75 264.50 L 741.75 263.25 L 744.75 260.50 L 744.75 259.25 L 747.75 256.50 L 747.75 255.25 L 749.75 253.50 L 749.75 252.25 L 751.75 250.50 L 751.75 249.25 L 752.75 248.50 L 752.75 247.25 L 753.75 246.50 L 753.75 245.25 L 754.75 244.50 L 754.75 243.25 L 755.75 242.50 L 755.75 241.25 L 756.75 240.50 L 756.75 239.25 L 757.75 238.50 L 757.75 237.25 L 758.75 236.50 L 758.75 235.25 L 759.75 234.50 L 759.75 232.25 L 760.75 231.50 L 760.75 229.25 L 761.75 228.50 L 761.75 226.25 L 762.75 225.50 L 762.75 223.25 L 763.75 222.50 L 763.75 220.25 L 764.75 219.50 L 764.75 215.25 L 765.75 214.50 L 765.75 210.25 L 766.75 209.50 L 766.75 203.25 L 767.75 202.50 L 767.75 176.25 L 766.75 175.50 L 766.75 169.25 L 765.75 168.50 L 765.75 163.25 L 764.75 162.50 L 764.75 159.25 L 763.75 158.50 L 763.75 155.25 L 762.75 154.50 L 762.75 152.25 L 761.75 151.50 L 761.75 149.25 L 760.75 148.50 L 760.75 146.25 L 759.75 145.50 L 759.75 143.25 L 758.75 142.50 L 758.75 141.25 L 757.75 140.50 L 757.75 139.25 L 756.75 138.50 L 756.75 137.25 L 755.75 136.50 L 755.75 135.25 L 754.75 134.50 L 754.75 133.25 L 753.75 132.50 L 753.75 131.25 L 752.75 130.50 L 752.75 129.25 L 750.75 127.50 L 750.75 126.25 L 749.75 125.50 L 749.75 124.25 L 747.75 122.50 L 747.75 121.25 L 744.75 118.50 L 744.75 117.25 L 740.75 113.50 L 740.75 112.25 L 728.50 100.00 L 727.25 100.00 L 723.50 96.00 L 722.25 96.00 L 719.50 93.00 L 718.25 93.00 L 716.50 91.00 L 715.25 91.00 L 714.50 90.00 L 713.25 90.00 L 711.50 88.00 L 710.25 88.00 L 709.50 87.00 L 708.25 87.00 L 707.50 86.00 L 706.25 86.00 L 705.50 85.00 L 704.25 85.00 L 703.50 84.00 L 702.25 84.00 L 701.50 83.00 L 700.25 83.00 L 699.50 82.00 L 698.25 82.00 L 697.50 81.00 L 695.25 81.00 L 694.50 80.00 L 692.25 80.00 L 691.50 79.00 L 689.25 79.00 L 688.50 78.00 L 686.25 78.00 L 685.50 77.00 L 682.25 77.00 L 681.50 76.00 L 677.25 76.00 L 676.50 75.00 L 671.25 75.00 L 670.50 74.00 L 659.25 74.00 L 658.50 73.00 L 649.25 73.00 L 648.50 74.00 Z M 643.25 115.75 L 663.50 115.75 L 664.25 116.75 L 668.50 116.75 L 669.25 117.75 L 672.50 117.75 L 673.25 118.75 L 675.50 118.75 L 676.25 119.75 L 678.50 119.75 L 679.25 120.75 L 680.50 120.75 L 681.25 121.75 L 683.50 121.75 L 684.25 122.75 L 685.50 122.75 L 687.25 124.75 L 688.50 124.75 L 689.25 125.75 L 690.50 125.75 L 692.25 127.75 L 693.50 127.75 L 696.25 130.75 L 697.50 130.75 L 706.00 139.25 L 706.00 140.50 L 709.00 143.25 L 709.00 144.50 L 711.00 146.25 L 711.00 147.50 L 713.00 149.25 L 713.00 150.50 L 714.00 151.25 L 714.00 152.50 L 715.00 153.25 L 715.00 154.50 L 716.00 155.25 L 716.00 156.50 L 717.00 157.25 L 717.00 158.50 L 718.00 159.25 L 718.00 161.50 L 719.00 162.25 L 719.00 164.50 L 720.00 165.25 L 720.00 167.50 L 721.00 168.25 L 721.00 172.50 L 722.00 173.25 L 722.00 178.50 L 723.00 179.25 L 723.00 199.50 L 722.00 200.25 L 722.00 205.50 L 721.00 206.25 L 721.00 209.50 L 720.00 210.25 L 720.00 213.50 L 719.00 214.25 L 719.00 216.50 L 718.00 217.25 L 718.00 218.50 L 717.00 219.25 L 717.00 220.50 L 716.00 221.25 L 716.00 223.50 L 715.00 224.25 L 715.00 225.50 L 713.00 227.25 L 713.00 228.50 L 712.00 229.25 L 712.00 230.50 L 710.00 232.25 L 710.00 233.50 L 707.00 236.25 L 707.00 237.50 L 696.50 248.00 L 695.25 248.00 L 692.50 251.00 L 691.25 251.00 L 689.50 253.00 L 688.25 253.00 L 687.50 254.00 L 686.25 254.00 L 685.50 255.00 L 684.25 255.00 L 683.50 256.00 L 682.25 256.00 L 681.50 257.00 L 679.25 257.00 L 678.50 258.00 L 677.25 258.00 L 676.50 259.00 L 674.25 259.00 L 673.50 260.00 L 670.25 260.00 L 669.50 261.00 L 665.25 261.00 L 664.50 262.00 L 642.25 262.00 L 641.50 261.00 L 637.25 261.00 L 636.50 260.00 L 634.25 260.00 L 633.50 259.00 L 631.25 259.00 L 630.50 258.00 L 628.25 258.00 L 627.50 257.00 L 625.25 257.00 L 624.50 256.00 L 623.25 256.00 L 622.50 255.00 L 621.25 255.00 L 619.50 253.00 L 618.25 253.00 L 617.50 252.00 L 616.25 252.00 L 614.50 250.00 L 613.25 250.00 L 610.50 247.00 L 609.25 247.00 L 601.75 239.50 L 601.75 238.25 L 597.75 234.50 L 597.75 233.25 L 595.75 231.50 L 595.75 230.25 L 593.75 228.50 L 593.75 227.25 L 592.75 226.50 L 592.75 225.25 L 591.75 224.50 L 591.75 223.25 L 590.75 222.50 L 590.75 221.25 L 589.75 220.50 L 589.75 219.25 L 588.75 218.50 L 588.75 216.25 L 587.75 215.50 L 587.75 213.25 L 586.75 212.50 L 586.75 209.25 L 585.75 208.50 L 585.75 205.25 L 584.75 204.50 L 584.75 199.25 L 583.75 198.50 L 583.75 179.25 L 584.75 178.50 L 584.75 173.25 L 585.75 172.50 L 585.75 169.25 L 586.75 168.50 L 586.75 165.25 L 587.75 164.50 L 587.75 162.25 L 588.75 161.50 L 588.75 159.25 L 589.75 158.50 L 589.75 157.25 L 590.75 156.50 L 590.75 155.25 L 591.75 154.50 L 591.75 153.25 L 592.75 152.50 L 592.75 151.25 L 593.75 150.50 L 593.75 149.25 L 595.75 147.50 L 595.75 146.25 L 597.75 144.50 L 597.75 143.25 L 600.75 140.50 L 600.75 139.25 L 609.25 130.75 L 610.50 130.75 L 613.25 127.75 L 614.50 127.75 L 616.25 125.75 L 617.50 125.75 L 618.25 124.75 L 619.50 124.75 L 620.25 123.75 L 621.50 123.75 L 622.25 122.75 L 623.50 122.75 L 624.25 121.75 L 625.50 121.75 L 626.25 120.75 L 627.50 120.75 L 628.25 119.75 L 630.50 119.75 L 631.25 118.75 L 633.50 118.75 L 634.25 117.75 L 637.50 117.75 L 638.25 116.75 L 642.50 116.75 Z M 318.25 74.00 L 317.50 75.00 L 312.25 75.00 L 311.50 76.00 L 307.25 76.00 L 306.50 77.00 L 303.25 77.00 L 302.50 78.00 L 300.25 78.00 L 299.50 79.00 L 297.25 79.00 L 296.50 80.00 L 294.25 80.00 L 293.50 81.00 L 291.25 81.00 L 290.50 82.00 L 289.25 82.00 L 288.50 83.00 L 287.25 83.00 L 286.50 84.00 L 285.25 84.00 L 284.50 85.00 L 283.25 85.00 L 282.50 86.00 L 281.25 86.00 L 280.50 87.00 L 279.25 87.00 L 278.50 88.00 L 277.25 88.00 L 275.50 90.00 L 274.25 90.00 L 272.50 92.00 L 271.25 92.00 L 269.50 94.00 L 268.25 94.00 L 265.50 97.00 L 264.25 97.00 L 249.00 112.25 L 249.00 113.50 L 246.00 116.25 L 246.00 117.50 L 244.00 119.25 L 244.00 120.50 L 242.00 122.25 L 242.00 123.50 L 240.00 125.25 L 240.00 126.50 L 239.00 127.25 L 239.00 128.50 L 237.00 130.25 L 237.00 131.50 L 236.00 132.25 L 236.00 134.50 L 235.00 135.25 L 235.00 136.50 L 234.00 137.25 L 234.00 138.50 L 233.00 139.25 L 233.00 140.50 L 232.00 141.25 L 232.00 143.50 L 231.00 144.25 L 231.00 145.50 L 230.00 146.25 L 230.00 149.50 L 229.00 150.25 L 229.00 152.50 L 228.00 153.25 L 228.00 156.50 L 227.00 157.25 L 227.00 160.50 L 226.00 161.25 L 226.00 165.50 L 225.00 166.25 L 225.00 172.50 L 224.00 173.25 L 224.00 202.50 L 225.00 203.25 L 225.00 209.50 L 226.00 210.25 L 226.00 214.50 L 227.00 215.25 L 227.00 218.50 L 228.00 219.25 L 228.00 222.50 L 229.00 223.25 L 229.00 226.50 L 230.00 227.25 L 230.00 229.50 L 231.00 230.25 L 231.00 232.50 L 232.00 233.25 L 232.00 234.50 L 233.00 235.25 L 233.00 237.50 L 234.00 238.25 L 234.00 239.50 L 235.00 240.25 L 235.00 241.50 L 236.00 242.25 L 236.00 243.50 L 237.00 244.25 L 237.00 245.50 L 238.00 246.25 L 238.00 247.50 L 239.00 248.25 L 239.00 249.50 L 241.00 251.25 L 241.00 252.50 L 242.00 253.25 L 242.00 254.50 L 244.00 256.25 L 244.00 257.50 L 247.00 260.25 L 247.00 261.50 L 251.00 265.25 L 251.00 266.50 L 262.25 277.75 L 263.50 277.75 L 267.25 281.75 L 268.50 281.75 L 271.25 284.75 L 272.50 284.75 L 274.25 286.75 L 275.50 286.75 L 277.25 288.75 L 278.50 288.75 L 279.25 289.75 L 280.50 289.75 L 281.25 290.75 L 282.50 290.75 L 284.25 292.75 L 285.50 292.75 L 286.25 293.75 L 287.50 293.75 L 288.25 294.75 L 290.50 294.75 L 291.25 295.75 L 292.50 295.75 L 293.25 296.75 L 294.50 296.75 L 295.25 297.75 L 297.50 297.75 L 298.25 298.75 L 301.50 298.75 L 302.25 299.75 L 304.50 299.75 L 305.25 300.75 L 308.50 300.75 L 309.25 301.75 L 312.50 301.75 L 313.25 302.75 L 317.50 302.75 L 318.25 303.75 L 325.50 303.75 L 326.00 304.75 L 352.75 304.75 L 353.25 303.75 L 359.50 303.75 L 360.25 302.75 L 365.50 302.75 L 366.25 301.75 L 369.50 301.75 L 370.25 300.75 L 373.50 300.75 L 374.25 299.75 L 376.50 299.75 L 377.25 298.75 L 379.50 298.75 L 380.25 297.75 L 382.50 297.75 L 383.25 296.75 L 385.50 296.75 L 386.25 295.75 L 387.50 295.75 L 388.25 294.75 L 389.50 294.75 L 390.25 293.75 L 391.50 293.75 L 392.25 292.75 L 393.50 292.75 L 394.25 291.75 L 395.50 291.75 L 396.25 290.75 L 397.50 290.75 L 399.25 288.75 L 400.50 288.75 L 401.25 287.75 L 402.50 287.75 L 404.25 285.75 L 405.50 285.75 L 408.25 282.75 L 409.50 282.75 L 414.25 277.75 L 415.50 277.75 L 423.75 269.50 L 423.75 268.25 L 428.75 263.50 L 428.75 262.25 L 431.75 259.50 L 431.75 258.25 L 433.75 256.50 L 433.75 254.25 L 432.50 253.00 L 431.25 253.00 L 429.50 251.00 L 428.25 251.00 L 426.50 249.00 L 425.25 249.00 L 424.50 248.00 L 423.25 248.00 L 421.50 246.00 L 420.25 246.00 L 418.50 244.00 L 417.25 244.00 L 415.50 242.00 L 414.25 242.00 L 412.50 240.00 L 411.25 240.00 L 410.50 239.00 L 409.25 239.00 L 407.50 237.00 L 406.25 237.00 L 404.50 235.00 L 403.25 235.00 L 402.50 234.00 L 401.25 234.00 L 400.50 233.00 L 399.25 233.00 L 397.00 235.25 L 397.00 236.50 L 394.00 239.25 L 394.00 240.50 L 384.50 250.00 L 383.25 250.00 L 381.50 252.00 L 380.25 252.00 L 378.50 254.00 L 377.25 254.00 L 376.50 255.00 L 375.25 255.00 L 373.50 257.00 L 372.25 257.00 L 371.50 258.00 L 370.25 258.00 L 369.50 259.00 L 367.25 259.00 L 366.50 260.00 L 365.25 260.00 L 364.50 261.00 L 362.25 261.00 L 361.50 262.00 L 358.25 262.00 L 357.50 263.00 L 354.25 263.00 L 353.50 264.00 L 345.25 264.00 L 344.50 265.00 L 335.25 265.00 L 334.50 264.00 L 325.25 264.00 L 324.50 263.00 L 321.25 263.00 L 320.50 262.00 L 317.25 262.00 L 316.50 261.00 L 314.25 261.00 L 313.50 260.00 L 311.25 260.00 L 310.50 259.00 L 309.25 259.00 L 308.50 258.00 L 307.25 258.00 L 306.50 257.00 L 305.25 257.00 L 304.50 256.00 L 303.25 256.00 L 302.50 255.00 L 301.25 255.00 L 299.50 253.00 L 298.25 253.00 L 295.50 250.00 L 294.25 250.00 L 283.75 239.50 L 283.75 238.25 L 280.75 235.50 L 280.75 234.25 L 278.75 232.50 L 278.75 231.25 L 277.75 230.50 L 277.75 229.25 L 276.75 228.50 L 276.75 227.25 L 275.75 226.50 L 275.75 225.25 L 274.75 224.50 L 274.75 223.25 L 273.75 222.50 L 273.75 221.25 L 272.75 220.50 L 272.75 218.25 L 271.75 217.50 L 271.75 215.25 L 270.75 214.50 L 270.75 211.25 L 269.75 210.50 L 269.75 206.25 L 270.25 205.75 L 442.50 205.75 L 442.75 203.25 L 443.75 202.50 L 443.75 174.25 L 442.75 173.50 L 442.75 167.25 L 441.75 166.50 L 441.75 162.25 L 440.75 161.50 L 440.75 157.25 L 439.75 156.50 L 439.75 153.25 L 438.75 152.50 L 438.75 150.25 L 437.75 149.50 L 437.75 147.25 L 436.75 146.50 L 436.75 144.25 L 435.75 143.50 L 435.75 141.25 L 434.75 140.50 L 434.75 139.25 L 433.75 138.50 L 433.75 136.25 L 432.75 135.50 L 432.75 134.25 L 431.75 133.50 L 431.75 132.25 L 430.75 131.50 L 430.75 130.25 L 429.75 129.50 L 429.75 128.25 L 428.75 127.50 L 428.75 126.25 L 427.75 125.50 L 427.75 124.25 L 425.75 122.50 L 425.75 121.25 L 423.75 119.50 L 423.75 118.25 L 421.75 116.50 L 421.75 115.25 L 417.75 111.50 L 417.75 110.25 L 404.50 97.00 L 403.25 97.00 L 400.50 94.00 L 399.25 94.00 L 396.50 91.00 L 395.25 91.00 L 393.50 89.00 L 392.25 89.00 L 391.50 88.00 L 390.25 88.00 L 388.50 86.00 L 387.25 86.00 L 386.50 85.00 L 385.25 85.00 L 384.50 84.00 L 383.25 84.00 L 382.50 83.00 L 381.25 83.00 L 380.50 82.00 L 378.25 82.00 L 377.50 81.00 L 376.25 81.00 L 375.50 80.00 L 373.25 80.00 L 372.50 79.00 L 370.25 79.00 L 369.50 78.00 L 367.25 78.00 L 366.50 77.00 L 363.25 77.00 L 362.50 76.00 L 358.25 76.00 L 357.50 75.00 L 352.25 75.00 L 351.50 74.00 L 341.25 74.00 L 340.50 73.00 L 329.25 73.00 L 328.50 74.00 Z M 269.75 164.25 L 270.75 163.50 L 270.75 160.25 L 271.75 159.50 L 271.75 157.25 L 272.75 156.50 L 272.75 154.25 L 273.75 153.50 L 273.75 152.25 L 274.75 151.50 L 274.75 149.25 L 275.75 148.50 L 275.75 147.25 L 277.75 145.50 L 277.75 144.25 L 278.75 143.50 L 278.75 142.25 L 280.75 140.50 L 280.75 139.25 L 283.75 136.50 L 283.75 135.25 L 293.25 125.75 L 294.50 125.75 L 297.25 122.75 L 298.50 122.75 L 299.25 121.75 L 300.50 121.75 L 302.25 119.75 L 303.50 119.75 L 304.25 118.75 L 305.50 118.75 L 306.25 117.75 L 307.50 117.75 L 308.25 116.75 L 310.50 116.75 L 311.25 115.75 L 313.50 115.75 L 314.25 114.75 L 316.50 114.75 L 317.25 113.75 L 321.50 113.75 L 322.25 112.75 L 329.50 112.75 L 330.25 111.75 L 339.50 111.75 L 340.25 112.75 L 347.50 112.75 L 348.25 113.75 L 352.50 113.75 L 353.25 114.75 L 355.50 114.75 L 356.25 115.75 L 358.50 115.75 L 359.25 116.75 L 360.50 116.75 L 361.25 117.75 L 362.50 117.75 L 363.25 118.75 L 364.50 118.75 L 365.25 119.75 L 366.50 119.75 L 367.25 120.75 L 368.50 120.75 L 370.25 122.75 L 371.50 122.75 L 374.25 125.75 L 375.50 125.75 L 384.00 134.25 L 384.00 135.50 L 387.00 138.25 L 387.00 139.50 L 389.00 141.25 L 389.00 142.50 L 391.00 144.25 L 391.00 145.50 L 392.00 146.25 L 392.00 147.50 L 393.00 148.25 L 393.00 150.50 L 394.00 151.25 L 394.00 152.50 L 395.00 153.25 L 395.00 155.50 L 396.00 156.25 L 396.00 158.50 L 397.00 159.25 L 397.00 162.50 L 398.00 163.25 L 398.00 167.50 L 399.00 168.50 L 398.50 169.00 L 270.25 169.00 L 269.75 168.50 Z M 107.25 73.00 L 106.50 74.00 L 96.25 74.00 L 95.50 75.00 L 89.25 75.00 L 88.50 76.00 L 85.25 76.00 L 84.50 77.00 L 81.25 77.00 L 80.50 78.00 L 77.25 78.00 L 76.50 79.00 L 74.25 79.00 L 73.50 80.00 L 72.25 80.00 L 71.50 81.00 L 69.25 81.00 L 68.50 82.00 L 67.25 82.00 L 66.50 83.00 L 64.25 83.00 L 63.50 84.00 L 62.25 84.00 L 60.50 86.00 L 59.25 86.00 L 58.50 87.00 L 57.25 87.00 L 56.50 88.00 L 55.25 88.00 L 54.50 89.00 L 53.25 89.00 L 51.50 91.00 L 50.25 91.00 L 48.50 93.00 L 47.25 93.00 L 44.50 96.00 L 43.25 96.00 L 38.50 101.00 L 37.25 101.00 L 30.00 108.25 L 30.00 109.50 L 25.00 114.25 L 25.00 115.50 L 22.00 118.25 L 22.00 119.50 L 20.00 121.25 L 20.00 122.50 L 18.00 124.25 L 18.00 125.50 L 16.00 127.25 L 16.00 128.50 L 15.00 129.25 L 15.00 130.50 L 14.00 131.25 L 14.00 132.50 L 13.00 133.25 L 13.00 134.50 L 12.00 135.25 L 12.00 136.50 L 11.00 137.25 L 11.00 138.50 L 10.00 139.25 L 10.00 140.50 L 9.00 141.25 L 9.00 143.50 L 8.00 144.25 L 8.00 146.50 L 7.00 147.25 L 7.00 149.50 L 6.00 150.25 L 6.00 152.50 L 5.00 153.25 L 5.00 155.50 L 4.00 156.25 L 4.00 160.50 L 3.00 161.25 L 3.00 165.50 L 2.00 166.25 L 2.00 171.50 L 1.00 172.25 L 1.00 183.50 L 0.00 184.00 L 0.00 195.75 L 1.00 196.25 L 1.00 205.50 L 2.00 206.25 L 2.00 212.50 L 3.00 213.25 L 3.00 217.50 L 4.00 218.25 L 4.00 221.50 L 5.00 222.25 L 5.00 224.50 L 6.00 225.25 L 6.00 228.50 L 7.00 229.25 L 7.00 231.50 L 8.00 232.25 L 8.00 233.50 L 9.00 234.25 L 9.00 236.50 L 10.00 237.25 L 10.00 238.50 L 11.00 239.25 L 11.00 240.50 L 12.00 241.25 L 12.00 242.50 L 13.00 243.25 L 13.00 244.50 L 14.00 245.25 L 14.00 246.50 L 15.00 247.25 L 15.00 248.50 L 16.00 249.25 L 16.00 250.50 L 18.00 252.25 L 18.00 253.50 L 19.00 254.25 L 19.00 255.50 L 21.00 257.25 L 21.00 258.50 L 24.00 261.25 L 24.00 262.50 L 29.00 267.25 L 29.00 268.50 L 39.25 278.75 L 40.50 278.75 L 44.25 282.75 L 45.50 282.75 L 48.25 285.75 L 49.50 285.75 L 51.25 287.75 L 52.50 287.75 L 54.25 289.75 L 55.50 289.75 L 56.25 290.75 L 57.50 290.75 L 58.25 291.75 L 59.50 291.75 L 60.25 292.75 L 61.50 292.75 L 62.25 293.75 L 63.50 293.75 L 64.25 294.75 L 65.50 294.75 L 66.25 295.75 L 67.50 295.75 L 68.25 296.75 L 69.50 296.75 L 70.25 297.75 L 72.50 297.75 L 73.25 298.75 L 75.50 298.75 L 76.25 299.75 L 78.50 299.75 L 79.25 300.75 L 81.50 300.75 L 82.25 301.75 L 86.50 301.75 L 87.25 302.75 L 91.50 302.75 L 92.25 303.75 L 98.50 303.75 L 99.00 304.75 L 122.75 304.75 L 123.25 303.75 L 129.50 303.75 L 130.25 302.75 L 134.50 302.75 L 135.25 301.75 L 138.50 301.75 L 139.25 300.75 L 142.50 300.75 L 143.25 299.75 L 145.50 299.75 L 146.25 298.75 L 148.50 298.75 L 149.25 297.75 L 151.50 297.75 L 152.25 296.75 L 153.50 296.75 L 154.25 295.75 L 155.50 295.75 L 156.25 294.75 L 157.50 294.75 L 158.25 293.75 L 159.50 293.75 L 160.25 292.75 L 161.50 292.75 L 162.25 291.75 L 163.50 291.75 L 164.25 290.75 L 165.50 290.75 L 167.25 288.75 L 168.50 288.75 L 169.25 287.75 L 170.50 287.75 L 173.25 284.75 L 174.50 284.75 L 177.25 281.75 L 178.50 281.75 L 183.25 276.75 L 184.50 276.75 L 189.75 271.50 L 189.75 270.25 L 194.75 265.50 L 194.75 264.25 L 198.75 260.50 L 198.75 259.25 L 200.75 257.50 L 200.75 256.25 L 202.75 254.50 L 202.75 253.25 L 203.75 252.50 L 203.75 251.25 L 204.75 250.50 L 204.75 249.25 L 206.75 247.50 L 206.75 246.25 L 207.75 245.50 L 207.75 244.25 L 208.75 243.50 L 208.75 241.25 L 209.75 240.50 L 209.75 238.25 L 207.25 238.00 L 206.50 237.00 L 205.25 237.00 L 204.50 236.00 L 203.25 236.00 L 202.50 235.00 L 200.25 235.00 L 199.50 234.00 L 198.25 234.00 L 197.50 233.00 L 196.25 233.00 L 195.50 232.00 L 194.25 232.00 L 193.50 231.00 L 191.25 231.00 L 190.50 230.00 L 189.25 230.00 L 188.50 229.00 L 187.25 229.00 L 186.50 228.00 L 185.25 228.00 L 184.50 227.00 L 182.25 227.00 L 181.50 226.00 L 180.25 226.00 L 179.50 225.00 L 178.25 225.00 L 177.50 224.00 L 176.25 224.00 L 175.50 223.00 L 173.25 223.00 L 172.50 222.00 L 171.25 222.00 L 170.00 223.25 L 170.00 224.50 L 169.00 225.25 L 169.00 226.50 L 168.00 227.25 L 168.00 228.50 L 167.00 229.25 L 167.00 230.50 L 165.00 232.25 L 165.00 233.50 L 163.00 235.25 L 163.00 236.50 L 160.00 239.25 L 160.00 240.50 L 153.50 247.00 L 152.25 247.00 L 148.50 251.00 L 147.25 251.00 L 145.50 253.00 L 144.25 253.00 L 143.50 254.00 L 142.25 254.00 L 141.50 255.00 L 140.25 255.00 L 139.50 256.00 L 138.25 256.00 L 137.50 257.00 L 136.25 257.00 L 135.50 258.00 L 133.25 258.00 L 132.50 259.00 L 130.25 259.00 L 129.50 260.00 L 126.25 260.00 L 125.50 261.00 L 120.25 261.00 L 119.50 262.00 L 103.25 262.00 L 102.50 261.00 L 97.25 261.00 L 96.50 260.00 L 93.25 260.00 L 92.50 259.00 L 90.25 259.00 L 89.50 258.00 L 87.25 258.00 L 86.50 257.00 L 85.25 257.00 L 84.50 256.00 L 83.25 256.00 L 82.50 255.00 L 81.25 255.00 L 80.50 254.00 L 79.25 254.00 L 78.50 253.00 L 77.25 253.00 L 75.50 251.00 L 74.25 251.00 L 71.50 248.00 L 70.25 248.00 L 61.75 239.50 L 61.75 238.25 L 58.75 235.50 L 58.75 234.25 L 56.75 232.50 L 56.75 231.25 L 54.75 229.50 L 54.75 228.25 L 53.75 227.50 L 53.75 226.25 L 52.75 225.50 L 52.75 224.25 L 51.75 223.50 L 51.75 222.25 L 50.75 221.50 L 50.75 219.25 L 49.75 218.50 L 49.75 217.25 L 48.75 216.50 L 48.75 214.25 L 47.75 213.50 L 47.75 210.25 L 46.75 209.50 L 46.75 205.25 L 45.75 204.50 L 45.75 199.25 L 44.75 198.50 L 44.75 179.25 L 45.75 178.50 L 45.75 172.25 L 46.75 171.50 L 46.75 168.25 L 47.75 167.50 L 47.75 164.25 L 48.75 163.50 L 48.75 161.25 L 49.75 160.50 L 49.75 158.25 L 50.75 157.50 L 50.75 156.25 L 51.75 155.50 L 51.75 154.25 L 52.75 153.50 L 52.75 152.25 L 53.75 151.50 L 53.75 150.25 L 54.75 149.50 L 54.75 148.25 L 55.75 147.50 L 55.75 146.25 L 57.75 144.50 L 57.75 143.25 L 60.75 140.50 L 60.75 139.25 L 70.25 129.75 L 71.50 129.75 L 74.25 126.75 L 75.50 126.75 L 77.25 124.75 L 78.50 124.75 L 79.25 123.75 L 80.50 123.75 L 81.25 122.75 L 82.50 122.75 L 83.25 121.75 L 84.50 121.75 L 85.25 120.75 L 87.50 120.75 L 88.25 119.75 L 89.50 119.75 L 90.25 118.75 L 92.50 118.75 L 93.25 117.75 L 96.50 117.75 L 97.25 116.75 L 102.50 116.75 L 103.25 115.75 L 118.50 115.75 L 119.25 116.75 L 124.50 116.75 L 125.25 117.75 L 128.50 117.75 L 129.25 118.75 L 131.50 118.75 L 132.25 119.75 L 134.50 119.75 L 135.25 120.75 L 136.50 120.75 L 137.25 121.75 L 138.50 121.75 L 139.25 122.75 L 140.50 122.75 L 141.25 123.75 L 142.50 123.75 L 143.25 124.75 L 144.50 124.75 L 146.25 126.75 L 147.50 126.75 L 149.25 128.75 L 150.50 128.75 L 152.75 126.50 L 152.75 125.25 L 154.75 123.50 L 154.75 122.25 L 157.75 119.50 L 157.75 118.25 L 159.75 116.50 L 159.75 115.25 L 162.75 112.50 L 162.75 111.25 L 165.75 108.50 L 165.75 107.25 L 168.75 104.50 L 168.75 103.25 L 170.75 101.50 L 170.75 100.25 L 173.75 97.50 L 173.75 96.25 L 175.75 94.50 L 172.50 91.00 L 171.25 91.00 L 169.50 89.00 L 168.25 89.00 L 167.50 88.00 L 166.25 88.00 L 164.50 86.00 L 163.25 86.00 L 162.50 85.00 L 161.25 85.00 L 160.50 84.00 L 159.25 84.00 L 158.50 83.00 L 157.25 83.00 L 156.50 82.00 L 155.25 82.00 L 154.50 81.00 L 152.25 81.00 L 151.50 80.00 L 149.25 80.00 L 148.50 79.00 L 146.25 79.00 L 145.50 78.00 L 143.25 78.00 L 142.50 77.00 L 139.25 77.00 L 138.50 76.00 L 134.25 76.00 L 133.50 75.00 L 128.25 75.00 L 127.50 74.00 L 116.25 74.00 L 115.50 73.00 Z M 469.00 0.00 L 469.00 299.50 L 512.50 299.75 L 512.75 0.00 Z" fill="#F5F5F2" fill-rule="evenodd"></path>
</svg>